<svg class="{{ include.class }}" viewBox="0 0 902 642" xmlns="http://www.w3.org/2000/svg">
    <g id="Page-1" stroke="none" stroke-width="1" fill="none" fill-rule="evenodd">
        <g id="Desktop-HD-Copy" transform="translate(-482.000000, -41.000000)" fill="#FFFFFF">
            <g id="Wish-Happy" transform="translate(-7.000000, -33.000000)">
                <path d="M651,132 C657.627417,132 663,126.627417 663,120 C663,113.372583 657.627417,108 651,108 C644.372583,108 639,113.372583 639,120 C639,126.627417 644.372583,132 651,132 Z M622.10479,153.56041 C624.166738,149.394905 641.042804,134 641.042804,134 L660.15259,134 C660.15259,134 677.275983,149.604483 679.176491,153.56041 C681.077,157.516336 676.675023,161.374249 672.176724,157.725914 C667.678426,154.077579 662.299756,148.020719 662.299756,148.020719 L662.471532,157.081764 L638.981524,157.081764 L638.723864,148.278378 C638.723864,148.278378 629.974571,156.388836 627.902141,158.58478 C625.829712,160.780724 620.042843,157.725914 622.10479,153.56041 Z M629,172.898527 C630.59672,168.091458 638.5905,161.126947 638.5905,161.126947 L647.443914,170.425506 L641.558125,176.90482 C641.558125,176.90482 646.94931,182.741149 648.581505,184.670106 C650.213699,186.599063 649.620174,194.067586 642.893557,190.000001 C636.16694,185.932416 627.40328,177.705595 629,172.898527 Z M672.154036,172.898527 C670.557315,168.091458 662.563536,161.126947 662.563536,161.126947 L653.710121,170.425506 L659.59591,176.90482 C659.59591,176.90482 654.204726,182.741149 652.572531,184.670106 C650.940336,186.599063 651.533861,194.067586 658.260479,190.000001 C664.987096,185.932416 673.750756,177.705595 672.154036,172.898527 Z M1092.21132,89.7188306 C1096.55196,89.7188306 1100.07074,86.2000505 1100.07074,81.8594153 C1100.07074,77.5187801 1096.55196,74 1092.21132,74 C1087.87069,74 1084.35191,77.5187801 1084.35191,81.8594153 C1084.35191,86.2000505 1087.87069,89.7188306 1092.21132,89.7188306 Z M1073.28637,103.839848 C1074.63684,101.111646 1085.68984,91.0287331 1085.68984,91.0287331 L1098.20582,91.0287331 C1098.20582,91.0287331 1109.42081,101.248909 1110.66555,103.839848 C1111.91029,106.430788 1109.02721,108.957532 1106.08105,106.568051 C1103.13488,104.178569 1099.61211,100.211621 1099.61211,100.211621 L1099.72462,106.146164 L1084.33981,106.146164 L1084.17105,100.380375 C1084.17105,100.380375 1078.44069,105.69233 1077.08335,107.130566 C1075.72601,108.568802 1071.93589,106.568051 1073.28637,103.839848 Z M1077.8024,116.505373 C1078.84817,113.356977 1084.08371,108.795561 1084.08371,108.795561 L1089.88226,114.885664 L1086.02736,119.1293 C1086.02736,119.1293 1089.55832,122.951811 1090.62733,124.215184 C1091.69633,125.478557 1091.3076,130.370075 1086.902,127.706005 C1082.49639,125.041935 1076.75662,119.653769 1077.8024,116.505373 Z M1106.06619,116.505373 C1105.02041,113.356977 1099.78488,108.795561 1099.78488,108.795561 L1093.98632,114.885664 L1097.84123,119.1293 C1097.84123,119.1293 1094.31026,122.951811 1093.24125,124.215184 C1092.17225,125.478557 1092.56098,130.370075 1096.96658,127.706005 C1101.37219,125.041935 1107.11196,119.653769 1106.06619,116.505373 Z M1367.27188,168.859415 C1372.75591,168.859415 1377.20159,164.413734 1377.20159,158.929708 C1377.20159,153.445682 1372.75591,149 1367.27188,149 C1361.78786,149 1357.34218,153.445682 1357.34218,158.929708 C1357.34218,164.413734 1361.78786,168.859415 1367.27188,168.859415 Z M1343.3618,186.700129 C1345.06801,183.253275 1359.03255,170.514367 1359.03255,170.514367 L1374.84543,170.514367 C1374.84543,170.514367 1389.01462,183.426696 1390.58724,186.700129 C1392.15987,189.973562 1388.51734,193.16589 1384.79511,190.146982 C1381.07288,187.128074 1376.62216,182.11617 1376.62216,182.11617 L1376.7643,189.613964 L1357.32689,189.613964 L1357.11368,182.329377 C1357.11368,182.329377 1349.87385,189.040583 1348.15897,190.857673 C1346.44408,192.674763 1341.65559,190.146982 1343.3618,186.700129 Z M1349.06742,202.70195 C1350.38867,198.724218 1357.00333,192.961254 1357.00333,192.961254 L1364.32931,200.655585 L1359.45896,206.01706 C1359.45896,206.01706 1363.92004,210.84648 1365.27064,212.442645 C1366.62124,214.03881 1366.13011,220.218831 1360.564,216.853003 C1354.99789,213.487175 1347.74617,206.679682 1349.06742,202.70195 Z M1384.77633,202.70195 C1383.45509,198.724218 1376.84043,192.961254 1376.84043,192.961254 L1369.51444,200.655585 L1374.38479,206.01706 C1374.38479,206.01706 1369.92372,210.84648 1368.57312,212.442645 C1367.22251,214.03881 1367.71364,220.218831 1373.27975,216.853003 C1378.84587,213.487175 1386.09758,206.679682 1384.77633,202.70195 Z M1345.70527,506.304772 C1349.93156,506.304772 1353.35765,502.878682 1353.35765,498.652386 C1353.35765,494.42609 1349.93156,491 1345.70527,491 C1341.47897,491 1338.05288,494.42609 1338.05288,498.652386 C1338.05288,502.878682 1341.47897,506.304772 1345.70527,506.304772 Z M1327.27883,520.05382 C1328.59373,517.397483 1339.35557,507.58017 1339.35557,507.58017 L1351.54186,507.58017 C1351.54186,507.58017 1362.46143,517.53113 1363.67338,520.05382 C1364.88534,522.57651 1362.0782,525.036696 1359.20964,522.710158 C1356.34108,520.383619 1352.91111,516.521166 1352.91111,516.521166 L1353.02065,522.299384 L1338.0411,522.299384 L1337.87679,516.685475 C1337.87679,516.685475 1332.29738,521.857504 1330.97579,523.257855 C1329.6542,524.658206 1325.96392,522.710158 1327.27883,520.05382 Z M1331.67589,532.385715 C1332.69412,529.320253 1337.79174,524.878992 1337.79174,524.878992 L1343.43756,530.808672 L1339.68419,534.940524 C1339.68419,534.940524 1343.12215,538.662344 1344.163,539.892437 C1345.20384,541.122531 1344.82535,545.8852 1340.5358,543.291305 C1336.24624,540.697411 1330.65767,535.451177 1331.67589,532.385715 Z M1359.19517,532.385715 C1358.17694,529.320253 1353.07932,524.878992 1353.07932,524.878992 L1347.43351,530.808672 L1351.18687,534.940524 C1351.18687,534.940524 1347.74892,538.662344 1346.70807,539.892437 C1345.66722,541.122531 1346.04571,545.8852 1350.33527,543.291305 C1354.62482,540.697411 1360.2134,535.451177 1359.19517,532.385715 Z M634.777941,665.273474 C640.376306,665.273474 644.914678,660.735102 644.914678,655.136737 C644.914678,649.538372 640.376306,645 634.777941,645 C629.179576,645 624.641204,649.538372 624.641204,655.136737 C624.641204,660.735102 629.179576,665.273474 634.777941,665.273474 Z M610.369346,683.486157 C612.111131,679.967438 626.366818,666.96293 626.366818,666.96293 L642.509391,666.96293 C642.509391,666.96293 656.974001,680.144474 658.579414,683.486157 C660.184827,686.827839 656.466353,690.086726 652.666514,687.004876 C648.866675,683.923025 644.323162,678.806625 644.323162,678.806625 L644.468266,686.460744 L624.625597,686.460744 L624.407944,679.024277 C624.407944,679.024277 617.01717,685.875408 615.266531,687.730384 C613.515892,689.585359 608.627561,687.004876 610.369346,683.486157 Z M616.193923,699.821607 C617.542718,695.760942 624.295288,689.877823 624.295288,689.877823 L631.774016,697.732577 L626.802124,703.205836 C626.802124,703.205836 631.356209,708.135946 632.73497,709.765391 C634.113731,711.394835 633.612363,717.703706 627.930201,714.267703 C622.248038,710.831699 614.845129,703.882273 616.193923,699.821607 Z M652.647349,699.821607 C651.298554,695.760942 644.545984,689.877823 644.545984,689.877823 L637.067256,697.732577 L642.039148,703.205836 C642.039148,703.205836 637.485063,708.135946 636.106302,709.765391 C634.727541,711.394835 635.228909,717.703706 640.911071,714.267703 C646.593234,710.831699 653.996143,703.882273 652.647349,699.821607 Z M504.66893,430.820421 C508.209192,430.820421 511.079141,427.950472 511.079141,424.410211 C511.079141,420.869949 508.209192,418 504.66893,418 C501.128668,418 498.258719,420.869949 498.258719,424.410211 C498.258719,427.950472 501.128668,430.820421 504.66893,430.820421 Z M489.233565,442.337652 C490.335025,440.112505 499.349953,431.88879 499.349953,431.88879 L509.558099,431.88879 C509.558099,431.88879 518.705145,440.224458 519.720367,442.337652 C520.735589,444.450846 518.384122,446.511681 515.981202,444.562799 C513.578282,442.613916 510.705081,439.378436 510.705081,439.378436 L510.796841,444.218704 L498.24885,444.218704 L498.111212,439.516074 C498.111212,439.516074 493.437477,443.848553 492.330418,445.021591 C491.223359,446.19463 488.132105,444.562799 489.233565,442.337652 Z M492.916877,452.667769 C493.76982,450.099909 498.039971,446.379577 498.039971,446.379577 L502.769325,451.34672 L499.62523,454.807868 C499.62523,454.807868 502.505115,457.925542 503.377008,458.955961 C504.248901,459.986379 503.931849,463.975946 500.338596,461.803107 C496.745343,459.630267 492.063934,455.235629 492.916877,452.667769 Z M515.969082,452.667769 C515.116139,450.099909 510.845988,446.379577 510.845988,446.379577 L506.116634,451.34672 L509.26073,454.807868 C509.26073,454.807868 506.380844,457.925542 505.508951,458.955961 C504.637059,459.986379 504.95411,463.975946 508.547363,461.803107 C512.140616,459.630267 516.822025,455.235629 515.969082,452.667769 Z M760.790053,338.101591 C766.617097,338.101591 771.340849,333.377839 771.340849,327.550795 C771.340849,321.723752 766.617097,317 760.790053,317 C754.96301,317 750.239258,321.723752 750.239258,327.550795 C750.239258,333.377839 754.96301,338.101591 760.790053,338.101591 Z M735.384433,357.058213 C737.197365,353.395764 752.035358,339.860057 752.035358,339.860057 L768.837312,339.860057 C768.837312,339.860057 783.892763,353.580032 785.563753,357.058213 C787.234743,360.536394 783.364379,363.928398 779.409327,360.720662 C775.454274,357.512926 770.725171,352.187534 770.725171,352.187534 L770.876202,360.154304 L750.223013,360.154304 L749.99647,352.414077 C749.99647,352.414077 742.303803,359.545059 740.481655,361.475805 C738.659507,363.406551 733.571501,360.720662 735.384433,357.058213 Z M741.446928,374.060923 C742.850818,369.83439 749.879212,363.710962 749.879212,363.710962 L757.663426,371.886561 L752.488446,377.583388 C752.488446,377.583388 757.228553,382.71488 758.663632,384.410883 C760.098712,386.106886 759.576865,392.673457 753.662601,389.097102 C747.748338,385.520747 740.043039,378.287456 741.446928,374.060923 Z M779.389378,374.060923 C777.985489,369.83439 770.957095,363.710962 770.957095,363.710962 L763.172881,371.886561 L768.347861,377.583388 C768.347861,377.583388 763.607754,382.71488 762.172674,384.410883 C760.737595,386.106886 761.259442,392.673457 767.173705,389.097102 C773.087969,385.520747 780.793267,378.287456 779.389378,374.060923 Z M980.66893,492.820421 C984.209192,492.820421 987.079141,489.950472 987.079141,486.410211 C987.079141,482.869949 984.209192,480 980.66893,480 C977.128668,480 974.258719,482.869949 974.258719,486.410211 C974.258719,489.950472 977.128668,492.820421 980.66893,492.820421 Z M965.233565,504.337652 C966.335025,502.112505 975.349953,493.88879 975.349953,493.88879 L985.558099,493.88879 C985.558099,493.88879 994.705145,502.224458 995.720367,504.337652 C996.735589,506.450846 994.384122,508.511681 991.981202,506.562799 C989.578282,504.613916 986.705081,501.378436 986.705081,501.378436 L986.796841,506.218704 L974.24885,506.218704 L974.111212,501.516074 C974.111212,501.516074 969.437477,505.848553 968.330418,507.021591 C967.223359,508.19463 964.132105,506.562799 965.233565,504.337652 Z M968.916877,514.667769 C969.76982,512.099909 974.039971,508.379577 974.039971,508.379577 L978.769325,513.34672 L975.62523,516.807868 C975.62523,516.807868 978.505115,519.925542 979.377008,520.955961 C980.248901,521.986379 979.931849,525.975946 976.338596,523.803107 C972.745343,521.630267 968.063934,517.235629 968.916877,514.667769 Z M991.969082,514.667769 C991.116139,512.099909 986.845988,508.379577 986.845988,508.379577 L982.116634,513.34672 L985.26073,516.807868 C985.26073,516.807868 982.380844,519.925542 981.508951,520.955961 C980.637059,521.986379 980.95411,525.975946 984.547363,523.803107 C988.140616,521.630267 992.822025,517.235629 991.969082,514.667769 Z M1331.70527,840.304772 C1335.93156,840.304772 1339.35765,836.878682 1339.35765,832.652386 C1339.35765,828.42609 1335.93156,825 1331.70527,825 C1327.47897,825 1324.05288,828.42609 1324.05288,832.652386 C1324.05288,836.878682 1327.47897,840.304772 1331.70527,840.304772 Z M1313.27883,854.05382 C1314.59373,851.397483 1325.35557,841.58017 1325.35557,841.58017 L1337.54186,841.58017 C1337.54186,841.58017 1348.46143,851.53113 1349.67338,854.05382 C1350.88534,856.57651 1348.0782,859.036696 1345.20964,856.710158 C1342.34108,854.383619 1338.91111,850.521166 1338.91111,850.521166 L1339.02065,856.299384 L1324.0411,856.299384 L1323.87679,850.685475 C1323.87679,850.685475 1318.29738,855.857504 1316.97579,857.257855 C1315.6542,858.658206 1311.96392,856.710158 1313.27883,854.05382 Z M1317.67589,866.385715 C1318.69412,863.320253 1323.79174,858.878992 1323.79174,858.878992 L1329.43756,864.808672 L1325.68419,868.940524 C1325.68419,868.940524 1329.12215,872.662344 1330.163,873.892437 C1331.20384,875.122531 1330.82535,879.8852 1326.5358,877.291305 C1322.24624,874.697411 1316.65767,869.451177 1317.67589,866.385715 Z M1345.19517,866.385715 C1344.17694,863.320253 1339.07932,858.878992 1339.07932,858.878992 L1333.43351,864.808672 L1337.18687,868.940524 C1337.18687,868.940524 1333.74892,872.662344 1332.70807,873.892437 C1331.66722,875.122531 1332.04571,879.8852 1336.33527,877.291305 C1340.62482,874.697411 1346.2134,869.451177 1345.19517,866.385715 Z" id="Combined-Shape"></path>
            </g>
        </g>
    </g>
</svg>
