<svg class="{{ include.class }}" viewBox="0 0 959 591" xmlns="http://www.w3.org/2000/svg">
    <title>MEN</title>
    <desc>Created with Sketch.</desc>
    <defs>
        <polygon id="path-1" points="0.00763358779 7.56269162 47.7110256 0.272199214 45.8892864 5.52290541 68.0151257 70.9652992 78.1992153 139.055921 56.4331974 88.8700081 22.7681087 24.4064918 0.00763358779 11.6494833"></polygon>
        <path d="M0.00763358779,7.56269162 C0.00763358779,7.56269162 21.5815987,11.3601489 30.4181732,10.0096584 C37.4827294,8.9299848 47.7110256,0.272199214 47.7110256,0.272199214 L45.8892864,5.52290541 L73.6104458,47.1855475 C81.8707341,59.6000872 86.781782,81.6126871 84.5770928,96.3687015 L78.1992153,139.055921 L56.4331974,88.8700081 L22.7681087,24.4064918 L0.00763358779,11.6494833 L0.00763358779,7.56269162 Z" id="path-3"></path>
        <rect id="path-5" x="149" y="236" width="144" height="40" rx="52"></rect>
        <mask id="mask-6" maskContentUnits="userSpaceOnUse" maskUnits="objectBoundingBox" x="0" y="0" width="144" height="40" fill="white">
            <use xlink:href="#path-5"></use>
        </mask>
    </defs>
    <g id="Page-1" stroke="none" stroke-width="1" fill="none" fill-rule="evenodd">
        <g id="Desktop-HD-Copy" transform="translate(-481.000000, -81.000000)">
            <g id="Wish-Happy" transform="translate(-7.000000, -33.000000)">
                <g id="MEN" transform="translate(488.000000, 50.000000)">
                    <g id="Group-10" transform="translate(264.000000, 0.000000)">
                        <path d="M477.007634,330.139814 L586.015267,330.139814 C586.015267,330.139814 609.692784,643.081037 645.74593,637.847516 C681.799076,632.613996 696.918126,653.66554 696.918126,653.66554 L517.787526,653.66554 L477.007634,607.302076 L477.007634,330.139814 Z" id="Rectangle-384" fill="#EF3510"></path>
                        <path d="M477.007634,390.211315 L477.007634,330.139814 L586.015267,330.139814 C586.015267,330.139814 575.304256,393.872451 574.109874,468.776885 C573.033498,536.28062 580.164737,488.96761 580.164737,488.96761 L580.164737,637.050599 L477.007634,390.211315 Z" id="Rectangle-384-Copy-2" fill="#D92A07"></path>
                        <path d="M328.98567,307.988611 L405.830254,361.392291 C422.779227,373.171097 453.25117,382.719707 473.8912,382.719707 L521.723998,382.719707" id="Line" stroke="#FFE4B8" stroke-width="22" stroke-linecap="square"></path>
                        <path d="M343.190219,317.707513 L405.658976,360.607796 C420.459177,370.771802 446.966232,380.164375 464.867114,381.58693 L479.121541,382.719707 L521.723998,382.719707" id="Line-Copy-2" stroke="#202022" stroke-width="24" stroke-linecap="square"></path>
                        <rect id="Rectangle-48" fill="#373737" x="399" y="600" width="121" height="53"></rect>
                        <rect id="Rectangle-48" fill="#FFFFFF" x="0" y="303" width="433" height="272"></rect>
                        <ellipse id="Oval-15" fill="#FFE4B8" cx="312.129771" cy="297.13715" rx="17.129771" ry="17.1371505"></ellipse>
                        <path d="M575,142.390146 L575,345.301053" id="Line-Copy-4" stroke="#FFE4B8" stroke-width="22" stroke-linecap="square"></path>
                        <path d="M575,157.969374 L575,334.782994" id="Line-Copy-3" stroke="#202022" stroke-width="22" stroke-linecap="square"></path>
                        <g id="Group" transform="translate(533.500000, 581.447403) scale(-1, 1) translate(-533.500000, -581.447403) translate(418.000000, 459.447403)">
                            <path d="M88,0 L88,157.339586" id="Line-Copy-3" stroke="#FFE4B8" stroke-width="22" stroke-linecap="square"></path>
                            <path d="M88,0 L88,143.054632" id="Line-Copy-7" stroke="#202022" stroke-width="22" stroke-linecap="square"></path>
                            <path d="M84.2900763,92.1284953 L84.2900763,49.0552981 C84.2900763,25.5265492 103.358673,6.45272969 126.892533,6.45272969 L169.49499,6.45272969" id="Line-Copy-2" stroke="#202022" stroke-width="22" stroke-linecap="square" transform="translate(126.892533, 49.290613) scale(-1, 1) translate(-126.892533, -49.290613) "></path>
                            <path d="M157,110 L181.541891,110 C198.503458,127.826127 228.368396,138.42215 228.368396,138.42215 C231.955043,139.836365 231.738089,140.982813 227.867112,140.982813 L157,140.982813 L157,110 Z" id="Rectangle-378-Copy-3" fill="#202022"></path>
                            <rect id="Rectangle-44" fill="#FFE4B8" x="160" y="103" width="18" height="7"></rect>
                            <g id="Rectangle-378-Copy-5-+-Rectangle-378-Copy-4-+-Rectangle-378-Copy-3" transform="translate(58.820772, 185.084357) scale(-1, 1) rotate(-310.000000) translate(-58.820772, -185.084357) translate(14.820772, 146.084357)" fill="#202022">
                                <path d="M-0.746783084,23.4304964 L23.795108,23.4304964 C40.7566753,41.2566237 70.6216129,51.8526463 70.6216129,51.8526463 C74.2082602,53.2668616 73.9913063,54.4133096 70.1203284,54.4133096 L-0.746783084,54.4133096 L-0.746783084,23.4304964 Z" id="Rectangle-378-Copy-3" transform="translate(36.213640, 38.921903) rotate(-50.000000) translate(-36.213640, -38.921903) "></path>
                            </g>
                        </g>
                        <rect id="Rectangle-362-Copy-8" fill="#202022" x="517.885496" y="324.297603" width="68.129771" height="165.529294" rx="90"></rect>
                        <rect id="Rectangle-362-Copy-3" fill="#202022" x="517.885496" y="324.297603" width="68.129771" height="130.476032" rx="90"></rect>
                        <path d="M573.451077,142.527364 C582.911589,142.527364 590.580848,134.854801 590.580848,125.390214 C590.580848,120.761992 581.913634,118.294124 575.836494,109.039127 C569.486049,99.3679096 575.836494,95.3596159 567.677737,95.3596159 C559.51898,95.3596159 561.730124,115.925627 561.730124,125.390214 C561.730124,134.854801 563.990566,142.527364 573.451077,142.527364 Z" id="Oval-15-Copy" fill="#FFE4B8"></path>
                        <path d="M477.007634,296.644474 L524.705091,296.644474 L524.705091,323.908123 L538.103035,323.908123 C564.56423,323.908123 586.015267,345.362294 586.015267,371.820174 L586.015267,344.544672 C586.015267,371.005768 564.576439,392.456724 538.103794,392.456724 L524.919107,392.456724 C498.458331,392.456724 477.007634,371.014239 477.007634,344.550599 L477.007634,296.644474 Z" id="Rectangle-362-Copy" fill="#D9B06B"></path>
                        <path d="M477.007634,324.562692 C477.007634,334.461815 524.933632,338.866155 524.933631,323.908123 C538.334484,323.908123 564.136189,321.414301 564.136189,291.004171 C566.421917,291.004171 586.203717,323.908123 586.203717,323.908123 L586.203717,402.285052 C586.203717,402.285052 570.110411,428.733544 566.86767,428.733544 C563.47785,428.733544 517.976034,441.255203 517.976034,441.255203 L517.976034,432.460544 C517.976034,410.367045 500.066296,392.456724 477.979933,392.456724 L477.007634,392.456724 L477.007634,324.562692 Z" id="Rectangle-362-Copy-4" fill="#202022"></path>
                        <path d="M477.007634,324.562692 L524.56062,317.707184 L568.520445,370.908648 C574.853954,378.573646 579.988278,392.843446 579.988278,402.788514 L579.988278,457.000001 L524.56062,457.000001 L524.56062,428.611554 C524.56062,418.669183 519.527867,404.316271 513.321346,396.555546 L477.007634,351.148345 L477.007634,324.562692 Z" id="Rectangle-362-Copy-6" fill="#FFFFFF"></path>
                        <polygon id="Rectangle-47" fill="#EEEEEE" points="476.924101 338 491.470125 348.633573 500.070375 341.038546 492.140274 358.574121"></polygon>
                        <g id="Group-4" transform="translate(477.000000, 317.000000)">
                            <mask id="mask-2" fill="white">
                                <use xlink:href="#path-1"></use>
                            </mask>
                            <use id="Mask" fill="#D9AF6B" xlink:href="#path-1"></use>
                            <mask id="mask-4" fill="white">
                                <use xlink:href="#path-3"></use>
                            </mask>
                            <use id="Mask-Copy-2" fill="#185092" xlink:href="#path-3"></use>
                            <g id="Group-8" mask="url(#mask-4)">
                                <g transform="translate(52.515190, 47.625380) rotate(-29.000000) translate(-52.515190, -47.625380) translate(42.515190, 27.125380)">
                                    <path d="M9.9475983e-14,10.125 L3.87504716,10.125 C5.91876934,10.125 7.95627782,27.0070362 10,27.0070362 C12.1703244,27.0070362 14.3468626,10.125 16.517187,10.125 L20,10.125 L20,41 L10,34.9910297 L9.9475983e-14,41 L9.9475983e-14,10.125 Z" id="Rectangle-76" fill="#FFFFFF" fill-rule="evenodd"></path>
                                    <text id="V" fill="none" font-family="AvenirNext-Bold, Avenir Next" font-size="27.5" font-weight="bold">
                                        <tspan x="0.232689913" y="28.6405707" fill="#EF3510">V</tspan>
                                    </text>
                                </g>
                            </g>
                        </g>
                        <g id="Head" transform="translate(477.007634, 207.274301)">
                            <rect id="Rectangle" fill="#FFD898" x="0" y="0" width="57.6057516" height="114.819193" rx="100"></rect>
                            <circle id="Oval-16" fill="#FFFFFF" cx="28.5" cy="88.5" r="11.5"></circle>
                            <ellipse id="Oval-10" fill="#FFFFFF" cx="14.0152672" cy="44.6850866" rx="6.22900763" ry="6.23169108"></ellipse>
                            <ellipse id="Oval-10-Copy" fill="#FFFFFF" cx="44.3816794" cy="44.6850866" rx="6.22900763" ry="6.23169108"></ellipse>
                            <ellipse id="Oval-10-Copy-3" fill="#4E4E4E" cx="14.0152672" cy="44.6850866" rx="2.33587786" ry="2.33688415"></ellipse>
                            <ellipse id="Oval-10-Copy-2" fill="#4E4E4E" cx="44.3816794" cy="44.6850866" rx="2.33587786" ry="2.33688415"></ellipse>
                        </g>
                        <g id="Group-3" transform="translate(113.000000, 0.000000)">
                            <path d="M28,65 L58.6128726,65 C74.7582778,65 90.8545948,200.05629 107,200.05629 C124.145563,200.05629 141.340214,65 158.485777,65 L186,65 L186,312 L107,263.928238 L28,312 L28,65 Z" id="Rectangle-76" fill="#7F1400"></path>
                            <text id="V" font-family="AvenirNext-Bold, Avenir Next" font-size="220" font-weight="bold" fill="#EF3510">
                                <tspan x="31.98" y="220">V</tspan>
                            </text>
                            <text id="VАТМАN" font-family="AvenirNext-Bold, Avenir Next" font-size="40" font-weight="bold" fill="#FFFFFF">
                                <tspan x="17.68" y="150">VАТМАN</tspan>
                            </text>
                            <text id="MEN" font-family="AvenirNext-Regular, Avenir Next" font-size="36" font-weight="normal" fill="#FFFFFF">
                                <tspan x="66.644" y="187">MEN</tspan>
                            </text>
                            <rect id="Rectangle-81" fill="#FFFFFF" opacity="0.2" x="79" y="196" width="56" height="2"></rect>
                            <rect id="Rectangle-81-Copy-6" fill="#FFFFFF" opacity="0.2" x="89" y="202" width="36" height="2"></rect>
                            <rect id="Rectangle-81-Copy-7" fill="#FFFFFF" opacity="0.2" x="99" y="209" width="16" height="2"></rect>
                            <text id="mr." font-family="PTSerif-Italic, PT Serif" font-size="20" font-style="italic" font-weight="normal" fill="#FFFFFF">
                                <tspan x="92.44" y="107">mr.</tspan>
                            </text>
                            <g id="Group-7" transform="translate(0.000000, 74.000000)" fill="#FFFFFF" opacity="0.2">
                                <rect id="Rectangle-81" x="160.513761" y="32" width="55.4862385" height="2"></rect>
                                <rect id="Rectangle-81-Copy" x="157.541284" y="26" width="35.6697248" height="2"></rect>
                                <rect id="Rectangle-81-Copy-2" x="154.568807" y="20" width="25.7614679" height="2"></rect>
                                <rect id="Rectangle-81-Copy-5" x="0" y="32" width="55.4862385" height="2"></rect>
                                <rect id="Rectangle-81-Copy-4" x="23.7798165" y="26" width="35.6697248" height="2"></rect>
                                <rect id="Rectangle-81-Copy-3" x="37.6513761" y="20" width="25.7614679" height="2"></rect>
                                <path d="M153.631648,34 C147.868466,14.3424877 129.841507,0 108.495413,0 C87.1493191,0 69.1223601,14.3424877 63.3591781,34 L65.4303383,34 C71.1289671,15.4627444 88.2544176,2 108.495413,2 C128.736408,2 145.861859,15.4627444 151.560487,34 L153.631648,34 Z" id="Combined-Shape"></path>
                            </g>
                        </g>
                        <use id="Rectangle-91" stroke="#FFFFFF" mask="url(#mask-6)" stroke-width="4" fill="#FFFFFF" xlink:href="#path-5"></use>
                        <g id="Group-5" transform="translate(166.000000, 247.000000)" fill="#BC2F13">
                            <text id="СМОТРЕТЬ" font-family="AvenirNext-Medium, Avenir Next" font-size="14" font-weight="400">
                                <tspan x="27" y="14">СМОТРЕТЬ</tspan>
                            </text>
                            <text id="" font-family="MaterialIcons-Regular, Material Icons" font-size="15" font-weight="normal">
                                <tspan x="0" y="17"></tspan>
                            </text>
                        </g>
                        <g id="Group-2" transform="translate(28.000000, 347.000000)" font-weight="normal">
                            <text id="“На-нашем-ватмане-вы" font-family="AvenirNext-Regular, Avenir Next" font-size="30" fill="#B22B10">
                                <tspan x="0" y="41">“На нашем ватмане вы </tspan>
                                <tspan x="0" y="82">детей называете сырьем!!”</tspan>
                            </text>
                            <text id="Юрий-Тандит" font-family="PTSerif-Italic, PT Serif" font-size="16" font-style="italic" fill="#A3A3A3">
                                <tspan x="0" y="160">Юрий Тандит</tspan>
                                <tspan x="0" y="180">Советник главы Службы безопасности Украины</tspan>
                                <tspan x="0" y="200">Shuster Live 15.04.2016</tspan>
                            </text>
                        </g>
                    </g>
                    <!-- <rect id="Rectangle-42" fill-opacity="0.34" fill="#00FFEB" x="697" y="546" width="264" height="107"></rect>
                    <rect id="Rectangle-42" fill-opacity="0.34" fill="#00FFEB" x="0" y="546" width="264" height="107"></rect> -->
                </g>
            </g>
        </g>
    </g>
</svg>
