<svg class="{{ include.class }}" viewBox="0 0 738 727" xmlns="http://www.w3.org/2000/svg">
    <title>Star</title>
    <desc>Created with Sketch.</desc>
    <defs></defs>
    <g id="Page-1" stroke="none" stroke-width="1" fill="none" fill-rule="evenodd" opacity="0.052238806">
        <g id="Desktop-HD-Copy" transform="translate(-459.000000, 0.000000)" fill="#FFFFFF">
            <g id="Wish-Happy" transform="translate(-7.000000, -33.000000)">
                <polygon id="Star-4" points="834.808694 579.684082 808.430975 763.617388 808.498183 577.802317 756.212513 756.109506 782.723278 572.19533 705.594042 741.246582 758.008682 562.977262 657.606009 719.331182 734.857513 550.335767 613.225311 690.809439 713.741061 534.52819 573.355412 656.261975 695.089198 515.876326 538.807948 616.392076 679.28162 494.759875 510.286206 572.011379 666.640126 471.608706 488.370806 524.023346 657.422058 446.89411 473.507881 473.404875 651.81507 421.119205 466 421.186412 649.933306 394.808694 466 368.430975 651.81507 368.498183 473.507881 316.212513 657.422058 342.723278 488.370806 265.594042 666.640126 318.008682 510.286206 217.606009 679.28162 294.857513 538.807948 173.225311 695.089198 273.741061 573.355412 133.355412 713.741061 255.089198 613.225311 98.8079484 734.857513 239.28162 657.606009 70.286206 758.008682 226.640126 705.594042 48.3708055 782.723278 217.422058 756.212513 33.5078814 808.498183 211.81507 808.430975 26 834.808694 209.933306 861.186412 26 861.119205 211.81507 913.404875 33.5078814 886.89411 217.422058 964.023346 48.3708055 911.608706 226.640126 1012.01138 70.286206 934.759875 239.28162 1056.39208 98.8079484 955.876326 255.089198 1096.26198 133.355412 974.52819 273.741061 1130.80944 173.225311 990.335767 294.857513 1159.33118 217.606009 1002.97726 318.008682 1181.24658 265.594042 1012.19533 342.723278 1196.10951 316.212513 1017.80232 368.498183 1203.61739 368.430975 1019.68408 394.808694 1203.61739 421.186412 1017.80232 421.119205 1196.10951 473.404875 1012.19533 446.89411 1181.24658 524.023346 1002.97726 471.608706 1159.33118 572.011379 990.335767 494.759875 1130.80944 616.392076 974.52819 515.876326 1096.26198 656.261975 955.876326 534.52819 1056.39208 690.809439 934.759875 550.335767 1012.01138 719.331182 911.608706 562.977262 964.023346 741.246582 886.89411 572.19533 913.404875 756.109506 861.119205 577.802317 861.186412 763.617388"></polygon>
            </g>
        </g>
    </g>
</svg>
