<?xml version="1.0" encoding="UTF-8" standalone="no"?>
<svg width="697px" height="558px" viewBox="0 0 697 558" version="1.1" xmlns="http://www.w3.org/2000/svg" xmlns:xlink="http://www.w3.org/1999/xlink">
    <!-- Generator: Sketch 3.7 (28169) - http://www.bohemiancoding.com/sketch -->
    <title>MEN</title>
    <desc>Created with Sketch.</desc>
    <defs>
        <polygon id="path-1" points="0.00763358779 7.56269162 47.7110256 0.272199214 45.8892864 5.52290541 68.0151257 70.9652992 78.1992153 139.055921 56.4331974 88.8700081 22.7681087 24.4064918 0.00763358779 11.6494833"></polygon>
        <path d="M0.00763358779,7.56269162 C0.00763358779,7.56269162 21.5815987,11.3601489 30.4181732,10.0096584 C37.4827294,8.9299848 47.7110256,0.272199214 47.7110256,0.272199214 L45.8892864,5.52290541 L73.6104458,47.1855475 C81.8707341,59.6000872 86.781782,81.6126871 84.5770928,96.3687015 L78.1992153,139.055921 L56.4331974,88.8700081 L22.7681087,24.4064918 L0.00763358779,11.6494833 L0.00763358779,7.56269162 Z" id="path-3"></path>
    </defs>
    <g id="Page-1" stroke="none" stroke-width="1" fill="none" fill-rule="evenodd">
        <g id="Desktop-HD-Copy" transform="translate(-668.000000, -169.000000)">
            <g id="Wish-Happy" transform="translate(-7.000000, -33.000000)">
                <g id="MEN" transform="translate(675.000000, 202.000000)">
                    <path d="M477.007634,235.139814 L586.015267,235.139814 C586.015267,235.139814 609.692784,548.081037 645.74593,542.847516 C681.799076,537.613996 696.918126,558.66554 696.918126,558.66554 L517.787526,558.66554 L477.007634,512.302076 L477.007634,235.139814 Z" id="Rectangle-384" fill="#EF3510"></path>
                    <path d="M477.007634,295.211315 L477.007634,235.139814 L586.015267,235.139814 C586.015267,235.139814 575.304256,298.872451 574.109874,373.776885 C573.033498,441.28062 580.164737,393.96761 580.164737,393.96761 L580.164737,542.050599 L477.007634,295.211315 Z" id="Rectangle-384-Copy-2" fill="#D92A07"></path>
                    <path d="M328.98567,212.988611 L405.830254,266.392291 C422.779227,278.171097 453.25117,287.719707 473.8912,287.719707 L521.723998,287.719707" id="Line" stroke="#FFE4B8" stroke-width="22" stroke-linecap="square"></path>
                    <path d="M343.190219,222.707513 L405.658976,265.607796 C420.459177,275.771802 446.966232,285.164375 464.867114,286.58693 L479.121541,287.719707 L521.723998,287.719707" id="Line-Copy-2" stroke="#202022" stroke-width="24" stroke-linecap="square"></path>
                    <rect id="Rectangle-48" fill="#373737" x="399" y="505" width="121" height="53"></rect>
                    <rect id="Rectangle-48" fill="#FFFFFF" x="0" y="208" width="433" height="272"></rect>
                    <ellipse id="Oval-15" fill="#FFE4B8" cx="312.129771" cy="202.13715" rx="17.129771" ry="17.1371505"></ellipse>
                    <path d="M575,47.3901465 L575,250.301053" id="Line-Copy-4" stroke="#FFE4B8" stroke-width="22" stroke-linecap="square"></path>
                    <path d="M575,62.9693742 L575,239.782994" id="Line-Copy-3" stroke="#202022" stroke-width="22" stroke-linecap="square"></path>
                    <g id="Group" transform="translate(533.500000, 486.447403) scale(-1, 1) translate(-533.500000, -486.447403) translate(418.000000, 364.447403)">
                        <path d="M88,0 L88,157.339586" id="Line-Copy-3" stroke="#FFE4B8" stroke-width="22" stroke-linecap="square"></path>
                        <path d="M88,0 L88,143.054632" id="Line-Copy-7" stroke="#202022" stroke-width="22" stroke-linecap="square"></path>
                        <path d="M84.2900763,92.1284953 L84.2900763,49.0552981 C84.2900763,25.5265492 103.358673,6.45272969 126.892533,6.45272969 L169.49499,6.45272969" id="Line-Copy-2" stroke="#202022" stroke-width="22" stroke-linecap="square" transform="translate(126.892533, 49.290613) scale(-1, 1) translate(-126.892533, -49.290613) "></path>
                        <path d="M157,110 L181.541891,110 C198.503458,127.826127 228.368396,138.42215 228.368396,138.42215 C231.955043,139.836365 231.738089,140.982813 227.867112,140.982813 L157,140.982813 L157,110 Z" id="Rectangle-378-Copy-3" fill="#202022"></path>
                        <rect id="Rectangle-44" fill="#FFE4B8" x="160" y="103" width="18" height="7"></rect>
                        <g id="Rectangle-378-Copy-5-+-Rectangle-378-Copy-4-+-Rectangle-378-Copy-3" transform="translate(58.820772, 185.084357) scale(-1, 1) rotate(-310.000000) translate(-58.820772, -185.084357) translate(14.820772, 146.084357)" fill="#202022">
                            <path d="M-0.746783084,23.4304964 L23.795108,23.4304964 C40.7566753,41.2566237 70.6216129,51.8526463 70.6216129,51.8526463 C74.2082602,53.2668616 73.9913063,54.4133096 70.1203284,54.4133096 L-0.746783084,54.4133096 L-0.746783084,23.4304964 Z" id="Rectangle-378-Copy-3" transform="translate(36.213640, 38.921903) rotate(-50.000000) translate(-36.213640, -38.921903) "></path>
                        </g>
                    </g>
                    <rect id="Rectangle-362-Copy-8" fill="#202022" x="517.885496" y="229.297603" width="68.129771" height="165.529294" rx="90"></rect>
                    <rect id="Rectangle-362-Copy-3" fill="#202022" x="517.885496" y="229.297603" width="68.129771" height="130.476032" rx="90"></rect>
                    <path d="M573.451077,47.5273642 C582.911589,47.5273642 590.580848,39.8548006 590.580848,30.3902137 C590.580848,25.7619918 581.913634,23.2941235 575.836494,14.0391269 C569.486049,4.36790958 575.836494,0.359615872 567.677737,0.359615872 C559.51898,0.359615872 561.730124,20.925627 561.730124,30.3902139 C561.730124,39.8548007 563.990566,47.5273642 573.451077,47.5273642 Z" id="Oval-15-Copy" fill="#FFE4B8"></path>
                    <path d="M477.007634,201.644474 L524.705091,201.644474 L524.705091,228.908123 L538.103035,228.908123 C564.56423,228.908123 586.015267,250.362294 586.015267,276.820174 L586.015267,249.544672 C586.015267,276.005768 564.576439,297.456724 538.103794,297.456724 L524.919107,297.456724 C498.458331,297.456724 477.007634,276.014239 477.007634,249.550599 L477.007634,201.644474 Z" id="Rectangle-362-Copy" fill="#D9B06B"></path>
                    <path d="M477.007634,229.562692 C477.007634,239.461815 524.933632,243.866155 524.933631,228.908123 C538.334484,228.908123 564.136189,226.414301 564.136189,196.004171 C566.421917,196.004171 586.203717,228.908123 586.203717,228.908123 L586.203717,307.285052 C586.203717,307.285052 570.110411,333.733544 566.86767,333.733544 C563.47785,333.733544 517.976034,346.255203 517.976034,346.255203 L517.976034,337.460544 C517.976034,315.367045 500.066296,297.456724 477.979933,297.456724 L477.007634,297.456724 L477.007634,229.562692 Z" id="Rectangle-362-Copy-4" fill="#202022"></path>
                    <path d="M477.007634,229.562692 L524.56062,222.707184 L568.520445,275.908648 C574.853954,283.573646 579.988278,297.843446 579.988278,307.788514 L579.988278,362.000001 L524.56062,362.000001 L524.56062,333.611554 C524.56062,323.669183 519.527867,309.316271 513.321346,301.555546 L477.007634,256.148345 L477.007634,229.562692 Z" id="Rectangle-362-Copy-6" fill="#FFFFFF"></path>
                    <polygon id="Rectangle-47" fill="#EEEEEE" points="476.924101 243 491.470125 253.633573 500.070375 246.038546 492.140274 263.574121"></polygon>
                    <g id="Group-4" transform="translate(477.000000, 222.000000)">
                        <mask id="mask-2" fill="white">
                            <use xlink:href="#path-1"></use>
                        </mask>
                        <use id="Mask" fill="#D9AF6B" xlink:href="#path-1"></use>
                        <mask id="mask-4" fill="white">
                            <use xlink:href="#path-3"></use>
                        </mask>
                        <use id="Mask-Copy-2" fill="#185092" xlink:href="#path-3"></use>
                        <g id="Group-8" mask="url(#mask-4)">
                            <g transform="translate(52.515190, 47.625380) rotate(-29.000000) translate(-52.515190, -47.625380) translate(42.515190, 27.125380)">
                                <path d="M9.9475983e-14,10.125 L3.87504716,10.125 C5.91876934,10.125 7.95627782,27.0070362 10,27.0070362 C12.1703244,27.0070362 14.3468626,10.125 16.517187,10.125 L20,10.125 L20,41 L10,34.9910297 L9.9475983e-14,41 L9.9475983e-14,10.125 Z" id="Rectangle-76" fill="#FFFFFF" fill-rule="evenodd"></path>
                                <text id="V" fill="none" font-family="AvenirNext-Bold, Avenir Next" font-size="27.5" font-weight="bold">
                                    <tspan x="0.232689913" y="28.6405707" fill="#EF3510">V</tspan>
                                </text>
                            </g>
                        </g>
                    </g>
                    <g id="Head" transform="translate(477.007634, 112.274301)">
                        <rect id="Rectangle" fill="#FFD898" x="0" y="0" width="57.6057516" height="114.819193" rx="100"></rect>
                        <circle id="Oval-16" fill="#FFFFFF" cx="28.5" cy="88.5" r="11.5"></circle>
                        <ellipse id="Oval-10" fill="#FFFFFF" cx="14.0152672" cy="44.6850866" rx="6.22900763" ry="6.23169108"></ellipse>
                        <ellipse id="Oval-10-Copy" fill="#FFFFFF" cx="44.3816794" cy="44.6850866" rx="6.22900763" ry="6.23169108"></ellipse>
                        <ellipse id="Oval-10-Copy-3" fill="#4E4E4E" cx="14.0152672" cy="44.6850866" rx="2.33587786" ry="2.33688415"></ellipse>
                        <ellipse id="Oval-10-Copy-2" fill="#4E4E4E" cx="44.3816794" cy="44.6850866" rx="2.33587786" ry="2.33688415"></ellipse>
                    </g>
                </g>
            </g>
        </g>
    </g>
</svg>