<svg width="216px" height="248px" viewBox="0 0 216 248" version="1.1" xmlns="http://www.w3.org/2000/svg" xmlns:xlink="http://www.w3.org/1999/xlink">
    <title>Vatman Logo</title>
    <g id="Page-1" stroke="none" stroke-width="1" fill="none" fill-rule="evenodd">
        <g id="Desktop-HD-Copy" transform="translate(-781.000000, -138.000000)">
            <g id="Wish-Happy" transform="translate(-7.000000, -33.000000)">
                <g id="Group-3" transform="translate(788.000000, 107.000000)">
                    <path d="M28,65 L58.6128726,65 C74.7582778,65 90.8545948,200.05629 107,200.05629 C124.145563,200.05629 141.340214,65 158.485777,65 L186,65 L186,312 L107,263.928238 L28,312 L28,65 Z" id="Rectangle-76" fill="#7F1400"></path>
                    <text id="V" font-family="AvenirNext-Bold, Avenir Next" font-size="220" font-weight="bold" fill="#EF3510">
                        <tspan x="31.98" y="220">V</tspan>
                    </text>
                    <!-- <text id="VАТМАN" font-family="AvenirNext-Bold, Avenir Next" font-size="40" font-weight="bold" fill="#FFFFFF">
                        <tspan x="17.68" y="150">VАТМАN</tspan>
                    </text> -->
                    <!-- <text id="MEN" font-family="AvenirNext-Regular, Avenir Next" font-size="36" font-weight="normal" fill="#FFFFFF">
                        <tspan x="66.644" y="187">MEN</tspan>
                    </text> -->
                    <rect id="Rectangle-81" fill="#FFFFFF" opacity="0.2" x="79" y="196" width="56" height="2"></rect>
                    <rect id="Rectangle-81-Copy-6" fill="#FFFFFF" opacity="0.2" x="89" y="202" width="36" height="2"></rect>
                    <rect id="Rectangle-81-Copy-7" fill="#FFFFFF" opacity="0.2" x="99" y="209" width="16" height="2"></rect>
                    <!-- <text id="mr." font-family="PTSerif-Italic, PT Serif" font-size="20" font-style="italic" font-weight="normal" fill="#FFFFFF">
                        <tspan x="92.44" y="107">mr.</tspan>
                    </text> -->
                    <g id="Group-7" transform="translate(0.000000, 74.000000)" fill="#FFFFFF" opacity="0.2">
                        <rect id="Rectangle-81" x="160.513761" y="32" width="55.4862385" height="2"></rect>
                        <rect id="Rectangle-81-Copy" x="157.541284" y="26" width="35.6697248" height="2"></rect>
                        <rect id="Rectangle-81-Copy-2" x="154.568807" y="20" width="25.7614679" height="2"></rect>
                        <rect id="Rectangle-81-Copy-5" x="0" y="32" width="55.4862385" height="2"></rect>
                        <rect id="Rectangle-81-Copy-4" x="23.7798165" y="26" width="35.6697248" height="2"></rect>
                        <rect id="Rectangle-81-Copy-3" x="37.6513761" y="20" width="25.7614679" height="2"></rect>
                        <path d="M153.631648,34 C147.868466,14.3424877 129.841507,0 108.495413,0 C87.1493191,0 69.1223601,14.3424877 63.3591781,34 L65.4303383,34 C71.1289671,15.4627444 88.2544176,2 108.495413,2 C128.736408,2 145.861859,15.4627444 151.560487,34 L153.631648,34 Z" id="Combined-Shape"></path>
                    </g>
                </g>
            </g>
        </g>
    </g>
</svg>
